<?xml version="1.0" standalone="no"?>
<!DOCTYPE svg PUBLIC "-//W3C//DTD SVG 20010904//EN"
 "http://www.w3.org/TR/2001/REC-SVG-20010904/DTD/svg10.dtd">
<svg version="1.0" xmlns="http://www.w3.org/2000/svg"
 width="700.000000pt" height="700.000000pt" viewBox="0 0 700.000000 700.000000"
 preserveAspectRatio="xMidYMid meet">
<metadata>
Created by potrace 1.11, written by Peter Selinger 2001-2013
</metadata>
<g transform="translate(0.000000,700.000000) scale(0.100000,-0.100000)"
fill="#000000" stroke="none">
<path d="M145 6976 c-60 -28 -97 -66 -124 -126 -21 -45 -21 -47 -21 -3350 0
-3303 0 -3305 21 -3350 25 -55 62 -95 114 -123 l40 -22 3310 -3 3310 -2 52 21
c62 25 113 78 137 140 15 41 16 287 14 3354 l-3 3310 -22 40 c-25 47 -64 85
-113 111 -34 18 -137 19 -3350 21 l-3315 3 -50 -24z"/>
</g>
</svg>
