<?xml version="1.0" standalone="no"?>
<!DOCTYPE svg PUBLIC "-//W3C//DTD SVG 20010904//EN"
 "http://www.w3.org/TR/2001/REC-SVG-20010904/DTD/svg10.dtd">
<svg version="1.0" xmlns="http://www.w3.org/2000/svg"
 width="700.000000pt" height="700.000000pt" viewBox="0 0 700.000000 700.000000"
 preserveAspectRatio="xMidYMid meet">
<metadata>
Created by potrace 1.14, written by Peter Selinger 2001-2017
</metadata>
<g transform="translate(0.000000,700.000000) scale(0.100000,-0.100000)"
fill="#000000" stroke="none">
<path d="M145 6976 c-60 -28 -97 -66 -124 -126 -21 -45 -21 -47 -21 -3350 0
-3303 0 -3305 21 -3350 27 -60 64 -98 124 -126 l50 -24 3302 0 3302 0 53 23
c62 28 109 77 132 138 15 41 16 302 14 3354 l-3 3310 -22 40 c-26 50 -65 86
-120 114 l-42 21 -3308 0 -3308 0 -50 -24z"/>
</g>
</svg>
